<?xml version="1.0" encoding="UTF-8" ?>
<!DOCTYPE svg PUBLIC "-//W3C//DTD SVG 1.1//EN" "http://www.w3.org/Graphics/SVG/1.1/DTD/svg11.dtd">
<svg width="304pt" height="268pt" viewBox="0 0 304 268" version="1.1" xmlns="http://www.w3.org/2000/svg">
<g id="#ffffffff">
</g>
<g id="#7ac3ccff">
<path fill="#7ac3cc" opacity="1.00" d=" M 108.90 95.24 C 123.10 70.59 137.64 46.14 152.00 21.59 C 166.45 46.25 181.05 70.83 195.33 95.60 C 193.63 94.96 191.94 94.33 190.24 93.71 C 177.51 71.96 164.78 50.21 151.99 28.49 C 139.25 50.17 126.60 71.91 113.80 93.55 C 112.16 94.11 110.53 94.68 108.90 95.24 Z" />
<path fill="#7ac3cc" opacity="1.00" d=" M 98.90 175.02 C 97.95 167.68 103.32 159.67 110.93 158.93 C 115.72 158.23 120.39 160.15 123.93 163.30 C 127.48 160.08 132.25 158.16 137.09 158.97 C 144.64 159.80 149.84 167.77 148.90 175.05 C 148.39 180.60 144.43 184.93 140.59 188.61 C 134.64 194.11 128.77 199.75 123.94 206.29 C 119.11 200.09 113.64 194.43 107.78 189.20 C 103.74 185.35 99.46 180.86 98.90 175.02 M 101.69 174.03 C 101.90 178.97 105.31 182.95 108.72 186.21 C 114.03 191.11 119.26 196.13 123.93 201.66 C 127.24 197.74 130.73 193.96 134.50 190.47 C 138.25 186.87 142.44 183.50 144.92 178.84 C 147.95 172.90 145.19 164.57 138.80 162.21 C 133.07 160.11 126.32 163.09 123.94 168.69 C 121.76 164.24 117.11 161.13 112.06 161.58 C 105.84 161.76 101.26 168.09 101.69 174.03 Z" />
<path fill="#7ac3cc" opacity="1.00" d=" M 49.29 196.67 C 50.62 196.66 51.94 196.65 53.27 196.65 C 45.66 210.14 37.57 223.37 29.86 236.80 C 111.29 236.81 192.72 236.82 274.15 236.80 C 266.44 223.39 258.41 210.16 250.76 196.72 C 251.66 196.66 253.48 196.53 254.39 196.46 C 263.26 210.96 271.76 225.70 280.27 240.42 C 194.76 240.48 109.25 240.46 23.74 240.43 C 32.09 225.74 40.84 211.29 49.29 196.67 Z" />
</g>
<g id="#6d6e71ff">
<path fill="#6d6e71" opacity="1.00" d=" M 129.35 106.46 C 132.66 106.35 136.71 105.02 139.40 107.64 C 141.74 109.75 140.72 113.15 140.10 115.78 C 143.35 117.54 145.06 121.63 143.07 124.98 C 140.49 129.26 134.89 128.05 130.71 128.47 C 130.32 121.13 129.74 113.80 129.35 106.46 M 131.02 107.81 C 131.24 110.45 131.43 113.09 131.61 115.73 C 133.80 115.32 136.56 116.07 138.27 114.29 C 139.63 113.23 139.23 111.37 139.49 109.88 C 137.42 107.18 134.00 107.76 131.02 107.81 M 131.61 117.47 C 131.89 120.57 132.07 123.68 132.12 126.80 C 135.08 126.40 138.69 127.20 141.04 124.93 C 143.50 122.65 142.15 118.03 138.92 117.33 C 136.49 116.95 134.04 117.32 131.61 117.47 Z" />
<path fill="#6d6e71" opacity="1.00" d=" M 155.27 106.26 C 160.70 103.76 167.66 106.84 169.50 112.52 C 172.55 119.47 166.68 128.41 158.99 127.90 C 152.95 127.82 148.08 121.98 148.67 116.04 C 148.82 111.87 151.38 107.87 155.27 106.26 M 157.25 107.34 C 149.53 109.02 147.76 120.57 154.38 124.70 C 159.99 129.04 168.88 123.90 168.40 116.98 C 169.21 111.04 163.00 105.63 157.25 107.34 Z" />
<path fill="#6d6e71" opacity="1.00" d=" M 176.77 112.10 C 177.12 110.04 176.86 107.45 179.21 106.49 C 178.88 111.08 177.85 115.58 177.27 120.13 C 176.54 124.11 179.99 128.27 184.00 128.46 C 187.50 128.87 191.17 126.43 191.87 122.93 C 192.81 118.27 193.17 113.51 194.21 108.86 C 194.51 109.14 195.11 109.69 195.40 109.96 C 195.09 114.30 194.29 118.62 193.56 122.92 C 192.98 126.28 190.29 129.10 186.97 129.86 C 182.23 131.24 176.62 127.97 175.76 123.07 C 175.31 119.38 176.35 115.75 176.77 112.10 Z" />
<path fill="#6d6e71" opacity="1.00" d=" M 114.10 107.76 C 117.49 111.28 119.17 116.03 121.78 120.11 C 123.43 123.15 125.50 126.00 126.38 129.39 C 124.21 128.46 123.48 126.14 122.24 124.34 C 118.84 123.61 115.31 124.97 111.90 125.33 C 111.12 127.39 111.81 130.99 109.04 131.47 C 110.47 123.52 112.20 115.61 114.10 107.76 M 114.94 111.39 C 113.99 115.41 113.13 119.45 112.32 123.50 C 115.19 123.10 118.06 122.71 120.93 122.30 C 119.18 118.53 116.94 115.02 114.94 111.39 Z" />
<path fill="#6d6e71" opacity="1.00" d=" M 203.81 111.14 C 207.77 112.36 213.43 112.17 215.14 116.81 C 216.71 120.35 214.03 123.93 210.89 125.42 C 212.70 127.67 212.57 130.50 211.99 133.18 C 212.28 133.76 212.87 134.91 213.16 135.49 C 209.00 136.35 210.72 131.42 210.84 129.08 C 210.11 125.13 205.36 124.39 202.02 124.05 C 201.29 126.83 201.03 129.80 199.79 132.40 C 199.41 132.52 198.65 132.77 198.27 132.89 C 199.92 125.59 201.83 118.35 203.81 111.14 M 204.90 113.15 C 204.08 116.18 203.39 119.25 202.94 122.37 C 205.80 122.79 209.09 124.90 211.78 122.89 C 214.28 121.43 214.59 117.51 212.45 115.62 C 210.34 113.86 207.44 113.82 204.90 113.15 Z" />
<path fill="#6d6e71" opacity="1.00" d=" M 88.34 113.61 C 88.75 113.51 89.56 113.29 89.97 113.18 C 91.61 119.79 93.00 126.47 94.88 133.03 C 98.78 132.13 102.65 130.93 106.67 130.63 C 106.17 132.33 104.34 132.42 102.97 132.82 C 99.81 133.56 96.65 134.29 93.46 134.90 C 91.79 127.79 90.10 120.70 88.34 113.61 Z" />
<path fill="#6d6e71" opacity="1.00" d=" M 143.42 140.34 C 145.18 136.46 151.56 137.03 152.66 141.11 C 154.05 144.54 151.27 147.80 148.06 148.67 C 144.42 148.01 141.04 143.90 143.42 140.34 M 143.73 142.98 C 143.61 145.53 146.14 146.73 148.04 147.71 C 150.99 146.56 153.21 143.01 150.89 140.18 C 148.69 136.96 143.60 139.48 143.73 142.98 Z" />
<path fill="#6d6e71" opacity="1.00" d=" M 155.15 137.81 C 157.38 137.85 159.75 137.50 161.83 138.54 C 159.94 138.71 158.05 138.79 156.17 138.85 C 156.14 139.72 156.08 141.45 156.05 142.32 C 157.70 142.35 159.36 142.39 161.01 142.51 C 159.81 143.96 157.77 143.25 156.15 143.47 C 156.10 145.23 156.00 146.99 155.86 148.75 C 154.45 145.27 155.29 141.45 155.15 137.81 Z" />
<path fill="#6d6e71" opacity="1.00" d=" M 66.23 158.05 C 67.48 158.20 69.79 157.97 69.43 159.97 C 69.55 174.22 69.44 188.47 69.47 202.72 C 77.35 202.86 85.25 202.53 93.12 202.86 C 95.13 203.32 94.75 205.35 93.56 206.42 C 84.57 206.21 75.58 206.28 66.59 206.38 C 65.28 201.70 66.15 196.79 65.92 192.00 C 66.10 180.68 65.52 169.34 66.23 158.05 Z" />
<path fill="#6d6e71" opacity="1.00" d=" M 157.41 158.30 C 158.61 157.69 159.28 159.39 159.74 160.18 C 165.51 173.41 170.99 186.77 176.77 200.01 C 182.79 186.53 188.39 172.87 194.30 159.35 C 194.91 157.11 198.36 158.56 197.44 160.53 C 192.11 173.37 186.52 186.11 181.03 198.88 C 179.92 201.65 178.74 204.42 177.07 206.92 C 175.96 205.96 174.86 204.93 174.38 203.52 C 168.52 189.52 162.48 175.60 156.53 161.64 C 155.91 160.54 155.66 158.45 157.41 158.30 Z" />
<path fill="#6d6e71" opacity="1.00" d=" M 209.92 158.09 C 219.15 158.24 228.43 157.70 237.63 158.34 C 237.75 159.05 237.99 160.46 238.11 161.16 C 229.79 161.82 221.42 161.30 213.07 161.45 C 213.04 167.80 213.04 174.14 213.08 180.49 C 219.92 180.54 226.76 180.38 233.60 180.53 C 235.51 180.28 235.71 183.79 233.88 183.80 C 226.96 184.10 220.02 183.81 213.09 183.91 C 213.02 190.19 213.06 196.46 213.06 202.74 C 221.15 202.69 229.23 202.82 237.32 202.67 C 237.78 203.89 238.63 205.32 237.10 206.19 C 228.70 206.47 220.27 206.25 211.86 206.30 C 210.39 206.67 209.29 205.17 209.47 203.86 C 209.40 191.26 209.49 178.64 209.44 166.03 C 209.39 163.38 209.32 160.69 209.92 158.09 Z" />
</g>
</svg>
